<svg version="1.1" id="Capa_1" xmlns="http://www.w3.org/2000/svg" xmlns:xlink="http://www.w3.org/1999/xlink" x="0px" y="0px"
	 viewBox="0 0 1200 1200" enable-background="new 0 0 1200 1200" xml:space="preserve">
<g>
	<path fill="#CF4A44" d="M527.105,343.548C346.906,130.759,587.781,64.276,587.781,64.276
		c-64.821-0.392-129.516,8.208-191.784,27.01c3.351,6.514,3.668,15.005,0.947,21.543c-4.794,11.517-15.504,14.746-26.81,14.995
		c-7.004,0.154-10.763,1.142-16.77,4.171c-1.675,0.845-2.907,2.217-4.689,2.964c-4.656,1.951-10.029,1.451-14.766,0.046
		c-7.533-2.235-14.569-7.163-19.034-13.686c-49.72,22.053-96.829,50.357-137.442,86.199c-20.332,17.944-37.941,37.342-53.001,58.136
		c10.566,9.083,14.879,31.087,11.055,41.923c-3.36,9.521-9.349,11.177-18.63,11.386c-11.018,0.248-20.281,4.19-28.605,10.404
		c-8.703,20.211-15.552,41.463-20.546,63.777c44.787-36.777,116.424-36.034,170.543-40.518
		C334.329,344.667,430.731,342.348,527.105,343.548z"/>
	<path fill="#FA5650" d="M587.781,64.276c0,0-240.875,66.483-60.676,279.27c53.076,0.66,106.144,2.386,159.145,4.823
		c75.458,3.47,150.848,8.269,226.197,13.567c70.357,4.947,145.604,18.101,215.932,6.636
		c-23.545-71.463-68.28-132.122-126.857-177.59c-17.601,21.361-63.334,33.142-77.206,7.055c-4.263-8.014-7.643-14.063-16.578-17.167
		c-2.534-0.88-5.397-0.86-7.938-1.977c-6.539-2.874-11.282-8.5-13.608-15.197c-4.569-13.158,1.442-24.663,10.431-33.494
		c-69.85-30.907-146.399-50.495-220.864-60.024c2.209,19.984-15.309,40.155-35.153,42.83c-12.603,1.699-24.354-2.902-37.219-0.6
		c-7.283,1.303-13.724,5.019-21.38,4.364c-10.663-0.911-15.651-6.963-19.246-16.132c-0.197-0.229-0.412-0.424-0.575-0.716
		c-4.739-8.538-0.044-18.465,8.119-22.708c4.858-2.525,15.131-3.539,17.384-8.917C588.366,66.685,588.262,65.408,587.781,64.276z"/>
	<path fill="#FFFFFF" d="M392.875,190.866c-2.665-1.557-7.255-1.829-10.202-2.109c-9.66-0.917-19.224,1.484-28.783,0.372
		c-5.696,2.982-17.876,15.85-9.245,16.691c2.7,0.263,7.768-3.481,10.589-4.132c7.671-1.769,11.266,1.044,16.78,5.727
		c5.333,4.529,8.894,7.489,15.37,3.682c3.039-1.787,7.583-6.639,8.872-9.941C397.892,196.971,398.175,193.962,392.875,190.866z"/>
	<path fill="#208738" d="M683.329,1072.021c1.5,0.584,3.009,1.139,4.491,1.787c1.683,0.736,3.305,1.553,4.897,2.408
		c5.745-37.655,29.828-77.254,51.83-105.86c22.055-28.674,49.078-52.932,79.642-71.913c-34.231,2.92-65.88,13.915-97.688,29.297
		c-7.474,26.006-20.092,55.691-38.574,73.192C687.023,1024.586,686.583,1048.701,683.329,1072.021z"/>
	<path fill="#48AD5B" d="M725.933,1030.208c-8.49,17.801-12.631,36.8-19.631,54.943c9.774,7.383,18.8,15.512,29.728,20.456
		c13.051-15.391,26.99-29.018,37.461-46.986c8.674-14.885,16.001-30.939,19.605-47.806c-7.565,4.793-16.223,7.814-25.627,9.042
		c-9.754,1.275-24.62,1.603-33.972-4.381C730.831,1020.315,728.307,1025.229,725.933,1030.208z"/>
	<path fill="#FFFFFF" d="M235.359,223.516c-15.009-7.27-29.776,1.697-33.625,16.884c-0.077,0.304-0.242,0.514-0.364,0.773
		c-0.068,0.173-0.145,0.332-0.233,0.495c-0.115,0.184-0.227,0.363-0.365,0.521c-0.74,0.986-1.864,1.671-3.454,1.573
		c-6.269-1.303-10.928,1.837-13.975,9.422c-0.269,7.073,3.158,9.919,10.279,8.537c10.299,1.617,12.654-1.515,19.275-8.703
		c4.412-4.79,9.06-11.666,15.817-13.282c3.408-0.815,5.996,1.55,8.771,1.081C247.992,239.041,241.867,226.668,235.359,223.516z"/>
	<path fill="#DA464B" d="M904.516,375.554c-63.269-4.626-126.586-8.812-189.946-12.103c6.213,14.434,8.983,30.305,8.325,46.035
		c31.783-10.069,68.166-8.762,100.792-7.06c36.643,1.912,73.103,6.371,109.746,8.292c35.112,1.841,70.603,1.473,105.22-5.327
		c20.115-3.952,38.767-10.599,57.032-18.473C1032.358,390.704,966.793,380.108,904.516,375.554z"/>
	<path fill="#FFFFFF" d="M273.966,265.584c-4.303,3.577-10.194,7.546-13.402,11.647c-6.26,8.006,2.612,7.895,7.032,10.705
		c2.89,1.837,5.306,4.329,6.791,7.434c2.729,5.703,0.436,15.38,11.604,10.379c6.44-2.883,9.008-11.468,9.003-17.91
		c-0.004-6.493-1.865-14.46-6.717-19.105C283.657,264.309,279.17,265.611,273.966,265.584z"/>
	<path fill="#FAAF27" d="M568.489,1068.932c32.508-6.08,67.704-9.874,100.047-1.644c-0.11-28.857,3.752-58.373,5.421-87.046
		c1.847-31.753,3.526-63.516,4.981-95.29c2.931-64.031,0.772-129.616,7.222-193.408c-10.232-4.934-19.653-11.742-28.801-18.458
		c-8.622-6.331-21.596-13.811-28.726-23.404c-11.409,9.746-25.225,15.742-39.622,17.947L568.489,1068.932z"/>
	<path fill="#E7A22D" d="M589.01,667.629c-21.042,3.222-43.327-1.658-61.162-14.772c-7.583-5.576-13.505-12.289-19.119-19.755
		c-2.751-3.658-5.529-5.753-8.421-7.009c-1.801,11.149-1.39,23.926-2.322,34.295c-2.447,27.225-4.363,54.488-6.259,81.756
		c-2.248,32.336-4.136,64.692-6.028,97.05c-0.894,15.29-1.756,30.582-2.528,45.879c-0.392,7.787,0.711,17.557-1.525,25.536
		c17.691,20.136,38.452,38.73,52.779,57.157c22.74,29.247,33.864,64.924,34.062,101.167L589.01,667.629z"/>
	<path fill="#48AD5B" d="M689.235,973.137c3.919-6.233,7.884-12.453,11.149-18.991c7.264-14.542,12.935-29.745,16.652-45.572
		c4.198-17.874,5.629-36.193,5.598-54.53c-7.487,16.707-17.24,32.012-29.992,45.969
		C691.622,924.394,690.477,948.768,689.235,973.137z"/>
	<path fill="#FFFFFF" d="M341.724,124.861c5.128-0.959,8.173-7.17,12.966-9.137c6.624-2.718,13.247,0.791,20.002-0.567
		c13.322-2.678,12.227-11.331,9.801-20.325c-20.278,6.549-40.412,14.007-60.188,22.414
		C329.016,122.009,336.011,125.93,341.724,124.861z"/>
	<path fill="#FFFFFF" d="M123.545,305.7c3.763-3.975,0.904-14.089-0.556-18.276c-1.355-3.886-3.903-7.287-6.246-10.718
		c-7.4,11.136-14.118,22.648-20.11,34.564c4.427-1.797,8.973-3.014,13.192-3.572C113.157,307.256,121.28,308.093,123.545,305.7z"/>
	<path fill="#FFFFFF" d="M570.429,97.313c8.69,15.399,25.818,3.436,36.528,1.623c6.56-1.11,10.725-0.384,17.147,0.639
		c16.473,2.624,31.484,0.185,37.644-18.013c1.398-4.132,1.672-8.451,2.081-12.765c-21.366-2.388-42.815-3.868-64.273-4.355
		c0.256,2.638,0.099,5.161-0.48,6.998c-1.818,5.778-6.142,9.078-11.541,11.326C579.266,86.208,571.178,87.129,570.429,97.313z"/>
	<path fill="#FFFFFF" d="M915.299,169.37c2.633,1.071,5.886,0.616,8.625,1.855c5.897,2.666,7.347,5.894,10.245,11.33
		c4.367,8.191-6.097,11.856,12.103,17.148c5.758,1.674,15.419-1.147,20.916-2.803c9.343-2.815,16.562-8.224,24.034-13.618
		c-12.314-8.947-25.121-17.322-38.491-24.936c-14.64-8.338-29.761-16.053-45.22-23.231
		C898.266,146.098,891.839,159.831,915.299,169.37z"/>
	<path fill="#208738" d="M377.915,921.068c-20.413-23.587-40.1-48.733-54.059-76.357c5.119,39.133,15.623,77.716,26.768,115.525
		c15.676,53.183,37.585,102.14,79.741,139.62c0.623,0.554,1.111,1.136,1.525,1.731c3.776-0.228,7.578-0.482,11.425-0.916
		c10.83-1.224,19.13-6.55,28.198-10.627c-4.462-33.628-12.374-62.539-31.049-92.01C422.672,969.956,399.571,946.089,377.915,921.068
		z"/>
	<path fill="#AD3B3D" d="M521.739,404.547c0.222-13.406-3.143-33.24,1.051-47.602c-18.275-0.224-36.555-0.322-54.837-0.277
		c-72.675,0.178-145.371,2.578-217.844,8.084c-58.682,4.458-132.978,2.539-180.976,41.966c15.443,2.99,30.799,7.597,46.184,10.621
		c35.352,6.948,71.1,11.654,107.017,14.429c47.363,3.659,94.917,4.234,142.333,1.153c27.854-1.81,55.641-4.816,83.203-9.255
		c23.426-3.773,49.742-13.925,73.701-13.956C521.626,407.988,521.711,406.277,521.739,404.547z"/>
	<path fill="#48AD5B" d="M488.866,941.197c-25.762-26.809-53.152-60.133-56.295-97.308c-15.071,31.469-17.863,64.847-11.649,101.397
		c30.856,37.913,67.243,88.633,64.035,140.489c21.263-3.367,42.463,12.083,63.014,16.738c6.333-30.922,4.005-63.33-7.792-92.773
		C529.312,982.612,508.775,961.915,488.866,941.197z"/>
	<path fill="#48AD5B" d="M341.329,1046.782c-6.555-0.574-13.131-0.773-19.708-0.854c6.691,12.938,9.111,25.808,13.317,40.788
		c4.973,17.713,18.971,25.66,33.353,33.736c10.556-5.132,21.229-10.613,32.924-14.463c2.365-0.779,4.728-1.356,7.089-1.859
		c-16.188-16.036-29.322-34.022-40.217-53.356C359.199,1050.309,349.938,1047.536,341.329,1046.782z"/>
	<path fill="#C48C35" d="M627.64,359.585c-31.845-1.153-63.7-1.999-95.566-2.464c2.274,11.257,0.52,24.796,0.726,35.376
		c0.31,15.925,0.535,31.811-1.82,47.605c-5.09,34.125-20.612,66.46-43.872,91.94c-6.248,6.844-13.775,12.497-19.879,19.434
		c-12.458,14.16-9.954,30.267,0.439,44.751c12.433,17.327,32.919,6.552,46.796,19.606c15.604,14.679,22.878,29.942,45.85,35.934
		c23.095,6.025,44.69-2.395,62.442-16.813c-2.453-16.016-1.712-32.521,1.182-48.443c1.87-10.289,5.421-19.606,8.869-29.429
		c5.381-15.326,5.424-28.225,2.204-44.147L627.64,359.585z"/>
	<path fill="#EAA73B" d="M635.01,512.935c-1.256-6.211,8.066-8.88,9.561-2.636c4.969,20.742,4.138,35.632-2.723,55.768
		c-7.556,22.175-9.913,45.062-7.222,68.252c0.426,0.444,0.785,0.939,1.091,1.467c10.726,5.619,20.115,17.133,29.388,24.049
		c13.033,9.721,26.985,20.335,43.214,23.712c20.223,4.208,39.551-7.237,36.513-29.42c-1.339-9.778-4.889-18.963-8.45-28.114
		c-6.213-15.968-11.862-31.137-13.45-48.321c-2.025-21.906-5.562-40.622-12.998-61.301c-5.647-15.704-11.552-31.825-11.096-48.767
		c0.473-17.518,9.499-32.825,12.003-49.943c2.796-19.104-1.216-37.017-7.328-54.802c-25.285-1.268-50.576-2.378-75.874-3.295
		L635.01,512.935z"/>
	<path fill="#FFFFFF" d="M780.5,147.955c-6.494,0.717-7.466,5.477-8.405,10.5c0.025,0.046,0.057,0.08,0.082,0.128
		c3.448,6.899,19.059,7.56,17.934-2.299C789.585,151.679,785.227,147.433,780.5,147.955z"/>
	<path fill="#FFFFFF" d="M842.905,241.671c-14.113,0.088-24.479,2.167-33.586,12.707c-0.019,0.147,0.023,0.27-0.011,0.422
		c-1.27,5.765-1.941,15.055,2.115,19.996c9.32,11.355,20.179,2.569,27.369-4.212c5.636-5.315,10.693-10.629,18.869-11.342
		c4.216-0.368,19.743,4.366,11.76-11.546C865.79,240.458,849.616,241.629,842.905,241.671z"/>
	<path fill="#FFFFFF" d="M694.391,236.297c-3.912-3.901-9.05-6.921-14.389-8.335c-10.561-2.798-17.769,1.91-24.595,8.803
		c-0.026,0.261,0.02,0.493-0.055,0.773c-2.167,8.079,0.194,13.538,10.021,12.958c3.487-0.206,6.88-1.983,10.435-2.249
		c8.342-0.625,10.058,3.894,16.532,7.068c10.632,5.214,10.377-6.705,7.542-12.081C698.547,240.702,696.417,238.317,694.391,236.297z
		"/>
	<path fill="#FFFFFF" d="M999.448,282.734c-6.245,0.45-9.958,5.407-12.464,10.614c0.139,0.276,0.321,0.484,0.424,0.813
		c2.957,9.417,26.794,13.601,27.916,1.99C1016.034,288.815,1005.879,282.27,999.448,282.734z"/>
	<path fill="#FFFFFF" d="M680.772,155.622c-4.379-3.583-14.104-5.524-19.631-6.594c-15.855-3.072-29.873,1.679-45.207,1.432
		c-0.128,0.074-0.197,0.188-0.341,0.252c-9.099,2.507-7.054,8.392,6.133,17.654c1.886-0.905,3.796-1.758,5.73-2.558
		c2.691-0.192,4.755-1.292,7.522-1.082c10.811,0.818,15.594,11.883,25.411,15.413c5.901,3.209,12.236,3.201,19.005-0.025
		C688.513,173.992,688.973,165.829,680.772,155.622z"/>
	<path fill="#FFFFFF" d="M528.041,166.55c9.686-14.079-2.146-27.531-16.04-30.97c-7.514-1.86-15.947-1.29-23.615-0.948
		c-15.964,0.712-32.004,0.057-44.671,10.39c-6.088,29.29,25.715,7.559,32.374,7.29c2.692-0.109,5.989,0.689,8.196,2.294
		c4.335,3.153,6.093,10.308,10.107,14.177C504.712,178.73,519.494,178.972,528.041,166.55z"/>
	<path fill="#FFFFFF" d="M521.435,220.26c-10.472-2.283-16.574,3.406-24.499,7.856c-4.5,18.626,21.415,35.068,32.23,15.435
		C533.736,235.254,532.245,222.618,521.435,220.26z"/>
	<path fill="#5F2739" d="M995.506,166.739c-80.121-55.877-180.691-87.832-276.035-104.937
		c-183.725-32.961-384.181,1.913-532.67,119.856C116.558,237.45,59.846,317.475,52.855,409.147c-0.29,3.791,3.333,5.856,6.57,5.592
		c14.657,9.692,35.585,13.159,51.959,16.863c35.496,8.031,71.78,12.942,108.01,16.141c49.45,4.366,99.354,4.681,148.874,1.326
		c25.557-1.732,51.047-4.533,76.374-8.365c23.104-3.496,53.406-5.24,75.962-15.281c-1.846,19.354-6.142,38.068-14.808,56.103
		c-11.343,23.604-28.018,40.02-46.337,57.977c-14.032,13.754-19.831,29.473-12.56,48.526c5.505,14.429,15.948,29.875,31.574,34.243
		c3.95,1.104,7.567,1.406,10.955,1.693c-2.341,8.461-2.603,18.392-3.52,25.863c-3.453,28.131-5.853,56.415-8.117,84.663
		c-2.658,33.165-5.01,66.369-6.992,99.582c-0.924,15.484-1.743,30.976-2.511,46.469c-0.181,3.65-0.698,7.769-1.117,11.992
		c-16.937-23.764-26.49-49.985-15.144-80.631c3.23-8.723-9.031-11.904-13.736-5.791c-24.579,31.939-41.245,76.087-35.764,117.141
		c-38.063-44.973-77.493-91.064-80.776-152.59c-0.613-11.492-17.192-11.488-17.856,0c-3.942,68.287,12.195,135.036,31.496,200.077
		c6.659,22.445,14.62,44.259,24.698,64.828c-16.091-4.667-37.051-3.171-50.483-3.198c-4.768-0.01-8.873,5.875-5.826,10.153
		c9.528,13.374,14.077,26.863,17.213,42.764c1.723,8.732,4.674,15.766,9.94,23.086c4.712,6.55,12.145,14.646,20.57,19.604
		c-13.919,5.472-28.44,8.583-45.57,4.868c-5.381-1.167-9.079,6.321-3.879,9.2c24.618,13.631,51.695,2.206,74.953-9.059
		c17.379-8.418,33.011-14.862,52.548-16.357c12.99-0.994,25.171-0.609,37.35-6.083c8.386-3.77,14.084-8.723,23.625-9.059
		c9.742-0.343,17.28,3.97,26.104,7.664c12.348,5.17,23.391,7.008,36.286,9.849c16.341,3.6,26.305,15.228,40.851,22.363
		c12.966,6.36,26.737,8.905,41.081,8.614c9.653-0.196,9.646-14.697,0-14.987c-18.915-0.568-34.048-6.318-49.161-17.17
		c-7.67-5.507-13.733-8.944-20.906-11.36c1.824-8.945,2.974-17.972,3.452-27.007c43.108-2.828,93.859-9.355,130.085,18.519
		c14.472,11.136,23.739,22.977,42.544,26.723c19.935,3.971,39.715,1.81,59.007,9.438c7.921,3.131,11.571-8.652,5.454-12.935
		c-15.449-10.816-33.289-9.459-51.183-11.029c13.79-13.241,25.029-31.873,33.366-46.926c12.074-21.801,21.283-45.571,22.115-70.703
		c0.249-7.553-9.43-8.951-13.22-3.581c-8.48,12.016-23.16,17.125-37.364,18.099c-6.535,0.448-12.962-1.21-19.332-2.119
		c6.468-10.625,13.558-20.872,21.366-30.525c26.577-32.857,59.942-58.687,97.701-77.468c7.314-3.638,3.238-14.084-3.915-14.453
		c-42.116-2.171-88.149,6.083-124.277,29.3c6.628-29.701,5.518-59.51,3.221-89.648c-0.516-6.767-10.255-8.739-12.233-1.656
		c-6.255,22.403-15.536,42.866-28.163,61.843c2.662-61.44,7.962-125.475,2.569-186.856c3.365,1.112,6.795,2.058,10.369,2.622
		c16.015,2.529,36.317-0.373,46.52-14.576c10.767-14.989,5.526-35.468,0.016-51.343c-3.782-10.897-8.959-21.29-12.406-32.31
		c-4.83-15.441-4.41-31.188-6.841-47.005c-3.475-22.621-15.062-42.631-20.402-64.706c-6.088-25.167,5.178-44.322,8.7-67.865
		c36.685-2.215,72.101-4.653,109.067-1.916c40.172,2.974,80.157,8.76,120.443,10.135c65.207,2.224,133.811-8.204,188.282-46.401
		c4.566-0.511,8.769-4.341,7.035-10C1120.995,288,1067.531,216.969,995.506,166.739z M907.51,135.115
		c15.459,7.178,30.58,14.893,45.22,23.231c13.37,7.614,26.178,15.99,38.491,24.936c-7.472,5.394-14.691,10.803-24.034,13.618
		c-5.497,1.656-15.158,4.477-20.916,2.803c-18.2-5.292-7.736-8.957-12.103-17.148c-2.898-5.437-4.348-8.664-10.245-11.33
		c-2.739-1.239-5.991-0.785-8.625-1.855C891.839,159.831,898.266,146.098,907.51,135.115z M599.076,71.44
		c0.579-1.837,0.736-4.36,0.48-6.998c21.458,0.487,42.907,1.967,64.273,4.355c-0.408,4.313-0.682,8.633-2.081,12.765
		c-6.16,18.198-21.171,20.638-37.644,18.013c-6.422-1.023-10.587-1.749-17.147-0.639c-10.71,1.813-27.838,13.776-36.528-1.623
		c0.749-10.185,8.837-11.106,17.106-14.548C592.934,80.518,597.257,77.218,599.076,71.44z M384.494,94.833
		c2.425,8.994,3.52,17.647-9.801,20.325c-6.755,1.358-13.378-2.151-20.002,0.567c-4.793,1.967-7.838,8.177-12.966,9.137
		c-5.713,1.069-12.708-2.853-17.418-7.615C344.081,108.841,364.216,101.382,384.494,94.833z M116.743,276.706
		c2.343,3.431,4.89,6.832,6.246,10.718c1.461,4.188,4.319,14.301,0.556,18.276c-2.265,2.393-10.388,1.556-13.72,1.997
		c-4.219,0.558-8.765,1.775-13.192,3.572C102.626,299.354,109.343,287.842,116.743,276.706z M447.868,423.664
		c-27.561,4.439-55.349,7.445-83.203,9.255c-47.416,3.082-94.969,2.507-142.333-1.153c-35.916-2.775-71.665-7.481-107.017-14.429
		c-15.385-3.023-30.74-7.631-46.184-10.621c47.998-39.427,122.294-37.508,180.976-41.966c72.473-5.506,145.17-7.906,217.844-8.084
		c18.282-0.045,36.562,0.053,54.837,0.277c-4.194,14.363-0.829,34.197-1.051,47.602c-0.029,1.73-0.113,3.441-0.17,5.161
		C497.609,409.739,471.294,419.891,447.868,423.664z M401.214,1105.99c-11.695,3.851-22.367,9.331-32.924,14.463
		c-14.381-8.077-28.379-16.023-33.353-33.736c-4.206-14.98-6.626-27.849-13.317-40.788c6.578,0.081,13.153,0.28,19.708,0.854
		c8.609,0.754,17.87,3.527,26.757,3.993c10.895,19.334,24.029,37.32,40.217,53.356
		C405.942,1104.633,403.579,1105.211,401.214,1105.99z M443.314,1100.669c-3.847,0.435-7.649,0.689-11.425,0.916
		c-0.414-0.595-0.902-1.177-1.525-1.731c-42.157-37.479-64.065-86.437-79.741-139.62c-11.145-37.808-21.649-76.392-26.768-115.525
		c13.96,27.624,33.646,52.771,54.059,76.357c21.656,25.022,44.757,48.889,62.548,76.964c18.676,29.471,26.588,58.382,31.049,92.01
		C462.444,1094.119,454.145,1099.445,443.314,1100.669z M547.972,1102.513c-20.551-4.655-41.752-20.105-63.014-16.738
		c3.208-51.856-33.179-102.576-64.035-140.489c-6.214-36.55-3.422-69.928,11.649-101.397c3.143,37.175,30.533,70.499,56.295,97.308
		c19.908,20.718,40.446,41.416,51.314,68.543C551.977,1039.183,554.305,1071.591,547.972,1102.513z M673.956,980.242
		c-1.669,28.672-5.531,58.188-5.421,87.046c-32.343-8.23-67.539-4.436-100.047,1.644c-0.198-36.243-11.322-71.92-34.062-101.167
		c-14.327-18.427-35.088-37.021-52.779-57.157c2.235-7.978,1.132-17.749,1.525-25.536c0.772-15.297,1.634-30.589,2.528-45.879
		c1.891-32.358,3.78-64.714,6.028-97.05c1.896-27.268,3.812-54.531,6.259-81.756c0.932-10.369,0.521-23.146,2.322-34.295
		c2.892,1.257,5.67,3.351,8.421,7.009c5.614,7.466,11.536,14.179,19.119,19.755c30.037,22.087,72.698,20.815,100.783-3.175
		c7.131,9.594,20.105,17.073,28.726,23.404c9.148,6.717,18.569,13.524,28.801,18.458c-6.451,63.792-4.291,129.378-7.222,193.408
		C677.483,916.726,675.803,948.489,673.956,980.242z M767.469,1019.857c9.403-1.229,18.062-4.249,25.627-9.042
		c-3.604,16.867-10.931,32.921-19.605,47.806c-10.471,17.968-24.41,31.595-37.461,46.986c-10.928-4.944-19.954-13.073-29.728-20.456
		c7-18.143,11.141-37.142,19.631-54.943c2.374-4.979,4.898-9.893,7.564-14.732C742.849,1021.46,757.715,1021.132,767.469,1019.857z
		 M726.502,927.741c31.807-15.383,63.457-26.377,97.688-29.297c-30.563,18.981-57.587,43.239-79.642,71.913
		c-22.002,28.606-46.085,68.205-51.83,105.86c-1.593-0.856-3.214-1.672-4.897-2.408c-1.482-0.648-2.991-1.203-4.491-1.787
		c3.254-23.32,3.694-47.435,4.599-71.088C706.41,983.432,719.028,953.747,726.502,927.741z M722.633,854.045
		c0.031,18.336-1.4,36.656-5.598,54.53c-3.718,15.826-9.388,31.03-16.652,45.572c-3.265,6.538-7.23,12.758-11.149,18.991
		c1.243-24.369,2.387-48.744,3.407-73.124C705.394,886.057,715.146,870.752,722.633,854.045z M710.841,417.682
		c-2.504,17.117-11.53,32.424-12.003,49.943c-0.456,16.941,5.448,33.063,11.096,48.767c7.436,20.679,10.972,39.395,12.998,61.301
		c1.588,17.184,7.237,32.353,13.45,48.321c3.561,9.151,7.111,18.336,8.45,28.114c3.038,22.183-16.29,33.628-36.513,29.42
		c-16.229-3.377-30.181-13.99-43.214-23.712c-9.273-6.917-18.662-18.43-29.388-24.049c-0.306-0.528-0.665-1.023-1.091-1.467
		c-2.691-23.191-0.334-46.078,7.222-68.252c6.862-20.136,7.692-35.026,2.723-55.768c-1.495-6.244-10.817-3.575-9.561,2.636
		c3.22,15.922,3.177,28.821-2.204,44.147c-3.448,9.824-7,19.14-8.869,29.429c-2.894,15.922-3.635,32.426-1.182,48.443
		c-17.752,14.417-39.347,22.837-62.442,16.813c-22.972-5.993-30.245-21.256-45.85-35.934c-13.877-13.054-34.363-2.279-46.796-19.606
		c-10.393-14.484-12.896-30.592-0.439-44.751c6.104-6.937,13.631-12.591,19.879-19.434c23.259-25.479,38.781-57.814,43.872-91.94
		c2.355-15.793,2.13-31.68,1.82-47.605c-0.206-10.581,1.547-24.119-0.726-35.376c57.18,0.835,114.327,2.895,171.44,5.759
		C709.625,380.665,713.637,398.577,710.841,417.682z M1038.654,405.391c-34.617,6.8-70.108,7.168-105.22,5.327
		c-36.643-1.921-73.103-6.38-109.746-8.292c-32.626-1.702-69.01-3.009-100.792,7.06c0.658-15.73-2.112-31.601-8.325-46.035
		c63.359,3.291,126.677,7.478,189.946,12.103c62.277,4.553,127.842,15.15,191.17,11.364
		C1077.422,394.793,1058.769,401.44,1038.654,405.391z M912.446,361.936c-75.349-5.298-150.739-10.097-226.197-13.567
		c-149.238-6.863-299.006-8.086-448.001,4.258c-54.119,4.484-125.756,3.741-170.543,40.518
		c4.994-22.315,11.843-43.566,20.546-63.777c8.324-6.214,17.586-10.156,28.605-10.404c9.281-0.209,15.27-1.865,18.63-11.386
		c3.824-10.837-0.489-32.84-11.055-41.923c15.06-20.794,32.669-40.192,53.001-58.136c40.613-35.841,87.723-64.145,137.442-86.199
		c4.466,6.523,11.502,11.451,19.034,13.686c4.737,1.405,10.11,1.906,14.766-0.046c1.782-0.747,3.014-2.119,4.689-2.964
		c6.007-3.029,9.766-4.016,16.77-4.171c11.306-0.25,22.017-3.479,26.81-14.995c2.721-6.539,2.404-15.029-0.947-21.543
		c62.268-18.802,126.963-27.402,191.784-27.01c0.481,1.131,0.584,2.408-0.092,4.024c-2.253,5.378-12.527,6.393-17.384,8.917
		c-8.164,4.243-12.858,14.17-8.119,22.708c0.163,0.292,0.377,0.487,0.575,0.716c3.595,9.169,8.583,15.221,19.246,16.132
		c7.656,0.655,14.097-3.061,21.38-4.364c12.865-2.302,24.616,2.299,37.219,0.6c19.844-2.675,37.362-22.846,35.153-42.83
		c74.465,9.528,151.014,29.117,220.864,60.024c-8.989,8.83-15,20.335-10.431,33.494c2.326,6.697,7.068,12.324,13.608,15.197
		c2.541,1.117,5.404,1.096,7.938,1.977c8.935,3.104,12.316,9.153,16.578,17.167c13.873,26.087,59.605,14.306,77.206-7.055
		c58.576,45.467,103.311,106.127,126.857,177.59C1058.05,380.037,982.803,366.883,912.446,361.936z"/>
	<path fill="#5F2739" d="M289.378,256.753c-6.054-2.96-14.561-3.766-19.141,1.416c-0.094,0.051-0.189,0.049-0.282,0.11
		c-9.778,6.327-29.7,15.437-23.185,30.166c1.452,3.283,3.929,5.585,7.251,6.904c5.347,2.123,8.999,2.77,11.037,8.926
		c2.505,7.567,6.594,14.271,15.74,14.375c20.781,0.238,27.911-25.081,23.622-41.366C302.22,268.932,297.36,260.656,289.378,256.753z
		 M285.992,305.749c-11.168,5.001-8.875-4.676-11.604-10.379c-1.485-3.105-3.902-5.596-6.791-7.434
		c-4.42-2.81-13.292-2.699-7.032-10.705c3.207-4.101,9.099-8.07,13.402-11.647c5.204,0.027,9.691-1.275,14.312,3.15
		c4.852,4.645,6.713,12.612,6.717,19.105C295,294.281,292.432,302.866,285.992,305.749z"/>
	<path fill="#5F2739" d="M243.36,214.367c-19.633-11.416-46.212-2.808-50.104,19.471c-18.117-1.31-28.432,20.266-15.808,35.471
		c6.487,7.813,16.449,9.436,25.777,6.122c5.933-2.108,10.461-5.812,14.897-10.165c2.621-2.571,5.235-7.312,8.453-9.123
		c11.917-6.708,7.027-0.178,14.806-0.705C266.742,253.716,260.368,224.257,243.36,214.367z M237.484,240.817
		c-2.775,0.469-5.363-1.896-8.771-1.081c-6.757,1.616-11.405,8.492-15.817,13.282c-6.621,7.188-8.976,10.32-19.275,8.703
		c-7.121,1.381-10.547-1.465-10.279-8.537c3.047-7.584,7.706-10.725,13.975-9.422c1.59,0.098,2.714-0.587,3.454-1.573
		c0.137-0.157,0.249-0.336,0.365-0.521c0.088-0.163,0.165-0.321,0.233-0.495c0.121-0.259,0.287-0.47,0.364-0.773
		c3.849-15.187,18.615-24.154,33.625-16.884C241.867,226.668,247.992,239.041,237.484,240.817z"/>
	<path fill="#5F2739" d="M352.304,180.555c-14.283,0.323-31.188,19.421-21.944,32.833c4.667,6.771,12.072,6.206,18.995,3.805
		c8.04-2.789,9.94-4.701,16.329,1.856c3.048,3.128,6.299,5.274,10.697,6.08c9.534,1.747,18.251-3.052,24.466-9.943
		c5.419-6.008,13.409-15.99,10.167-24.55C404.022,172.174,366.728,174.452,352.304,180.555z M396.257,201.157
		c-1.289,3.302-5.833,8.154-8.872,9.941c-6.476,3.807-10.037,0.847-15.37-3.682c-5.514-4.683-9.11-7.496-16.78-5.727
		c-2.821,0.651-7.889,4.395-10.589,4.132c-8.632-0.841,3.549-13.709,9.245-16.691c9.559,1.111,19.123-1.289,28.783-0.372
		c2.947,0.28,7.537,0.552,10.202,2.109C398.175,193.962,397.892,196.971,396.257,201.157z"/>
	<path fill="#5F2739" d="M538.959,172.945c14.64-24.648-4.712-46.573-29.49-49.917c-15.846-2.138-32.875-0.103-48.743,1.405
		c-11.508,1.094-19.813,5.406-23.6,16.236c-0.563,0.474-1.058,1.076-1.332,1.975c-2.824,9.244-0.261,19.032,8.372,24.389
		c4.186,2.597,9.788,3.525,14.608,3.068c4.535-0.429,7.723-3.09,11.895-3.664c7.05-0.97,6.13,0.778,9.977,4.265
		c9.025,8.181,14.121,16.163,27.738,17.56C520.956,189.553,532.489,183.837,538.959,172.945z M484.285,154.606
		c-2.207-1.605-5.504-2.403-8.196-2.294c-6.658,0.269-38.462,22-32.374-7.29c12.667-10.333,28.707-9.679,44.671-10.39
		c7.669-0.342,16.101-0.911,23.615,0.948c13.895,3.439,25.726,16.891,16.04,30.97c-8.547,12.422-23.328,12.18-33.649,2.233
		C490.377,164.914,488.619,157.759,484.285,154.606z"/>
	<path fill="#5F2739" d="M528.983,209.824c-12.669-5.396-35.26-1.142-38.991,13.699c-0.063,0.113-0.159,0.172-0.213,0.297
		c-6.213,14.164-0.494,30.812,13.343,38.113c14.02,7.398,30.107,0.381,37.226-13.054
		C547.632,235.13,544.331,216.361,528.983,209.824z M529.165,243.551c-10.815,19.633-36.73,3.192-32.23-15.435
		c7.925-4.45,14.028-10.14,24.499-7.856C532.245,222.618,533.736,235.254,529.165,243.551z"/>
	<path fill="#5F2739" d="M680.358,193.151c17.849-6.325,26.326-30.398,11.745-44.295c-16.879-16.088-57.988-19.128-78.361-6.726
		c-0.53-0.046-1.091,0.006-1.676,0.212c-17.888,6.307-26.522,32.565-3.429,39.704c5.161,1.596,8.534-0.127,13.392-0.643
		c5.733-0.609,4.984-2.607,11.968-1.306c7.19,1.339,5.67,2.352,10.786,5.375C655.795,191.979,667.215,197.808,680.358,193.151z
		 M660.39,180.138c-9.817-3.53-14.6-14.595-25.411-15.413c-2.767-0.209-4.831,0.891-7.522,1.082c-1.934,0.8-3.844,1.653-5.73,2.558
		c-13.187-9.262-15.232-15.147-6.133-17.654c0.144-0.064,0.213-0.177,0.341-0.252c15.334,0.247,29.352-4.503,45.207-1.432
		c5.526,1.071,15.252,3.011,19.631,6.594c8.201,10.206,7.741,18.37-1.378,24.491C672.626,183.339,666.291,183.347,660.39,180.138z"
		/>
	<path fill="#5F2739" d="M649.054,233.073c-0.763,0.473-1.432,1.163-1.804,2.231c-4.815,13.846,1.57,28.342,17.993,26.169
		c7.006-0.927,11.737-4.038,18.253,0.61c3.217,2.294,5.148,5.552,9.14,6.84c7.386,2.382,15.422-1.971,18.963-8.566
		C728.258,229.331,661.62,198.061,649.054,233.073z M692.34,255.316c-6.474-3.175-8.19-7.694-16.532-7.068
		c-3.555,0.266-6.948,2.043-10.435,2.249c-9.827,0.58-12.189-4.879-10.021-12.958c0.075-0.28,0.03-0.512,0.055-0.773
		c6.826-6.893,14.034-11.601,24.595-8.803c5.339,1.415,10.478,4.434,14.389,8.335c2.026,2.02,4.156,4.405,5.491,6.937
		C702.717,248.61,702.972,260.53,692.34,255.316z"/>
	<path fill="#5F2739" d="M801.776,152.64c-2.838-10.687-13.229-17.811-24.104-14.946c-5.316,1.401-10.098,4.111-12.57,9.175
		c-1.727,3.538-3.114,9.037-1.607,13.138c-0.133,0.667-0.108,1.39,0.173,2.163c3.356,9.209,13.084,14.266,22.675,13.134
		C797.474,173.991,804.665,163.519,801.776,152.64z M772.177,158.583c-0.025-0.048-0.057-0.082-0.082-0.128
		c0.939-5.023,1.911-9.783,8.405-10.5c4.727-0.522,9.085,3.724,9.611,8.33C791.236,166.143,775.625,165.482,772.177,158.583z"/>
	<path fill="#5F2739" d="M855.077,230.479c-16.95-1.703-49.834-1.444-52.885,20.697c-0.314,0.399-0.588,0.866-0.767,1.45
		c-5.227,17.075-0.104,38.038,20.832,38.614c11.392,0.314,18.447-6.549,26.084-13.918c7.403-7.142,14.054-4.011,22.89-5.192
		c4.826-0.645,8.038-1.965,10.957-5.955C895.645,247.778,870.427,232.022,855.077,230.479z M857.661,259.241
		c-8.175,0.714-13.232,6.027-18.869,11.342c-7.191,6.781-18.05,15.567-27.369,4.212c-4.056-4.941-3.385-14.231-2.115-19.996
		c0.034-0.153-0.008-0.275,0.011-0.422c9.108-10.539,19.473-12.618,33.586-12.707c6.711-0.042,22.885-1.213,26.516,6.024
		C877.404,263.607,861.878,258.872,857.661,259.241z"/>
	<path fill="#5F2739" d="M998.65,270.806c-10.695,0.663-23.12,11.696-19.618,22.796c-0.431,0.859-0.69,1.847-0.527,3.013
		c3.582,25.675,53.954,23.096,48.824-3.42C1024.843,280.349,1011.704,269.997,998.65,270.806z M1015.325,296.151
		c-1.123,11.611-24.96,7.427-27.916-1.99c-0.102-0.328-0.285-0.537-0.424-0.813c2.505-5.206,6.219-10.163,12.464-10.614
		C1005.879,282.27,1016.034,288.815,1015.325,296.151z"/>
	<path fill="#5F2739" d="M564.892,391.293c-0.477,22.979-7.571,43.122-11.845,65.286c-0.969,5.027,5.387,7.913,8.301,3.5
		c12.858-19.475,15.318-46.012,15.199-68.785C576.509,383.786,565.048,383.791,564.892,391.293z"/>
	<path fill="#5F2739" d="M532.978,506.296c-4.178,9.508-8.229,19.199-13.612,28.102c-4.866,8.047-13.112,15.37-15.417,24.589
		c-0.707,2.828,1.954,6.022,4.981,4.981c9.927-3.41,16.154-14.659,20.94-23.43c5.566-10.202,9.398-20.585,10.935-32.122
		C541.347,504.349,534.606,502.588,532.978,506.296z"/>
	<path fill="#5F2739" d="M596.755,471.818c-9.984,19.537-19.72,44.29-15.615,66.571c0.85,4.614,7.781,4.178,8.905,0
		c5.638-20.969,6.564-41.007,15.927-61.184C608.82,471.063,599.916,465.632,596.755,471.818z"/>
	<path fill="#5F2739" d="M559.398,565.02c-4.055,11.596-8.645,28.038-3.635,39.955c1.56,3.709,7.13,4.525,8.394,0
		c1.551-5.55,1.198-11.659,1.631-17.399c0.507-6.726,1.613-13.358,3.245-19.9C570.603,561.378,561.505,558.994,559.398,565.02z"/>
	<path fill="#5F2739" d="M625.381,385.044c0.03,7.128-0.184,14.243-0.804,21.346c-0.565,6.477-2.175,12.956-0.278,19.306
		c1.067,3.574,5.701,4.005,7.679,1.004c6.992-10.619,4.76-29.534,4.304-41.655C636.017,378.061,625.351,377.997,625.381,385.044z"/>
	<path fill="#5F2739" d="M681.793,397.555c-0.569-6.665-10.946-6.812-10.521,0c0.438,7.023,0.414,14.021-0.352,21.021
		c-0.752,6.872-2.763,13.756-2.722,20.648c0.025,4.266,5.785,5.788,7.969,2.159C683.508,429.179,682.959,411.24,681.793,397.555z"/>
	<path fill="#5F2739" d="M679.856,526.72c-0.731,18.058,1.485,37.867,13.436,52.203c2.254,2.704,6.021-0.28,5.44-3.167
		c-3.352-16.667-9.027-31.739-9.037-49.037C689.693,520.366,680.112,520.409,679.856,526.72z"/>
	<path fill="#5F2739" d="M685.438,608.796c-2.245-5.85-11.657-3.484-9.562,2.636c4.02,11.74,12.25,22.239,24.873,24.859
		c4.216,0.875,6.156-4.261,2.829-6.71C696.195,624.148,688.789,617.531,685.438,608.796z"/>
	<path fill="#5F2739" d="M530.709,705.99c-4.48,58.693-11.642,121.051-4.927,179.719c0.463,4.048,5.785,4.022,6.283,0
		c7.298-58.968,3.932-120.318,6.213-179.719C538.466,701.082,531.075,701.183,530.709,705.99z"/>
	<path fill="#5F2739" d="M629.459,716.975c-9.821,85.842-17.943,174.492-14.951,260.924c0.196,5.679,8.192,5.512,8.705,0
		c8.031-86.49,9.852-174.145,14.421-260.924C637.915,711.626,630.042,711.871,629.459,716.975z"/>
</g>
</svg>
